HIERARCHY
ROOT Pelvis
{
	OFFSET 0.000000 0.000000 0.000000
	CHANNELS 6 Xposition Yposition Zposition Xrotation Yrotation Zrotation
	JOINT LeftUpLeg_virtual
	{
		OFFSET 0.000000 0.000000 0.000000
		CHANNELS 3 Xrotation Yrotation Zrotation
		JOINT LeftUpLeg
		{
			OFFSET 18.735201 -5.666702 -4.541200
			CHANNELS 3 Xrotation Yrotation Zrotation
			JOINT LeftLeg
			{
				OFFSET -0.021200 -31.938179 0.493100
				CHANNELS 3 Xrotation Yrotation Zrotation
				JOINT LeftFoot
				{
					OFFSET 0.021200 -31.938179 -4.336299
					CHANNELS 3 Xrotation Yrotation Zrotation
					JOINT LeftToeBase
					{
						OFFSET 0.943001 -26.722000 15.023500
						CHANNELS 3 Xrotation Yrotation Zrotation
						End Site
						{
							OFFSET 0 0 0
						}
					}
				}
			}
		}
	}
	JOINT RightUpLeg_virtual
	{
		OFFSET 0.000000 0.000000 0.000000
		CHANNELS 3 Xrotation Yrotation Zrotation
		JOINT RightUpLeg
		{
			OFFSET -18.735201 -5.666702 -4.541200
			CHANNELS 3 Xrotation Yrotation Zrotation
			JOINT RightLeg
			{
				OFFSET 0.018946 -31.938133 0.493100
				CHANNELS 3 Xrotation Yrotation Zrotation
				JOINT RightFoot
				{
					OFFSET -0.018946 -31.938126 -4.336299
					CHANNELS 3 Xrotation Yrotation Zrotation
					JOINT RightToeBase
					{
						OFFSET -0.943001 -26.722004 15.023500
						CHANNELS 3 Xrotation Yrotation Zrotation
						End Site
						{
							OFFSET 0 0 0
						}
					}
				}
			}
		}
	}
	JOINT Hips_virtual
	{
		OFFSET 0.000000 0.000000 0.000000
		CHANNELS 3 Xrotation Yrotation Zrotation
		JOINT Hips
		{
			OFFSET -0.000000 -0.000000 -0.000000
			CHANNELS 3 Xrotation Yrotation Zrotation
			JOINT Spine
			{
				OFFSET 0.000000 10.199997 -0.299500
				CHANNELS 3 Xrotation Yrotation Zrotation
				JOINT Spine1
				{
					OFFSET 0.000000 11.900002 -1.516600
					CHANNELS 3 Xrotation Yrotation Zrotation
					JOINT Spine2
					{
						OFFSET 0.000000 13.600006 -2.842500
						CHANNELS 3 Xrotation Yrotation Zrotation
						JOINT Neck_virtual
						{
							OFFSET 0.000000 0.000000 0.000000
							CHANNELS 3 Xrotation Yrotation Zrotation
							JOINT Neck
							{
								OFFSET 0.000000 9.624100 -2.890100
								CHANNELS 3 Xrotation Yrotation Zrotation
								JOINT Head
								{
									OFFSET 0.000000 14.068802 -1.351900
									CHANNELS 3 Xrotation Yrotation Zrotation
									End Site
									{
										OFFSET 0 0 0
									}
								}
							}
						}
						JOINT LeftShoulder_virtual
						{
							OFFSET 0.000000 0.000000 0.000000
							CHANNELS 3 Xrotation Yrotation Zrotation
							JOINT LeftShoulder
							{
								OFFSET 15.263000 10.923401 -0.547700
								CHANNELS 3 Xrotation Yrotation Zrotation
								JOINT LeftArm
								{
									OFFSET 25.438599 -2.830597 -13.032500
									CHANNELS 3 Xrotation Yrotation Zrotation
									JOINT LeftForeArm
									{
										OFFSET 29.960503 0.000000 0.000000
										CHANNELS 3 Xrotation Yrotation Zrotation
										JOINT LeftHand
										{
											OFFSET 27.849251 0.000000 0.000000
											CHANNELS 3 Xrotation Yrotation Zrotation
											End Site
											{
												OFFSET 0 0 0
											}
										}
									}
								}
							}
						}
						JOINT RightShoulder_virtual
						{
							OFFSET 0.000000 0.000000 0.000000
							CHANNELS 3 Xrotation Yrotation Zrotation
							JOINT RightShoulder
							{
								OFFSET -15.263000 10.923401 -0.547700
								CHANNELS 3 Xrotation Yrotation Zrotation
								JOINT RightArm
								{
									OFFSET -25.438599 -2.830597 -13.032500
									CHANNELS 3 Xrotation Yrotation Zrotation
									JOINT RightForeArm
									{
										OFFSET -29.960503 0.000000 0.000000
										CHANNELS 3 Xrotation Yrotation Zrotation
										JOINT RightHand
										{
											OFFSET -27.849251 0.000000 0.000000
											CHANNELS 3 Xrotation Yrotation Zrotation
											End Site
											{
												OFFSET 0 0 0
											}
										}
									}
								}
							}
						}
					}
				}
			}
		}
	}
}
MOTION
Frames: 6
Frame Time: 0.03333333
-2.942779 87.187202 2.018315 0.000000 0.000000 0.000000 0.207813 -43.032033 0.227103 -42.097342 -1.367497 14.631570 43.390641 -7.503433 -1.243183 -7.216547 -7.171230 -12.137135 0.000000 0.000000 0.000000 13.760089 -34.683858 3.520355 -15.162972 -16.239330 -17.215968 34.557889 -4.298121 2.337101 -16.857723 -9.348498 12.323533 0.000000 0.000000 0.000000 0.328756 -9.980815 -1.382196 -9.990872 -42.072333 -4.523985 12.920211 9.999995 -3.389237 6.693654 6.493548 -2.384705 0.000000 0.000000 0.000000 7.972353 5.663384 -2.680036 0.884328 2.060160 -0.344536 0.000000 0.000000 0.000000 8.673410 7.427101 -3.070405 4.019387 4.908389 -9.638152 -3.369529 -8.126264 -54.746302 2.293396 -45.905206 -2.408098 0.000000 0.000000 0.000000 9.232957 6.609812 -1.139142 3.175661 15.685868 8.363727 -7.804704 -9.798414 50.711928 -4.986639 29.767388 10.136664 0.000000 0.000000 0.000000 
-2.886722 87.162621 2.012389 0.000000 0.000000 0.000000 0.175679 -43.091711 0.245069 -42.158216 -1.398881 14.662635 43.485072 -7.536773 -1.268079 -7.120235 -7.201135 -12.210067 0.000000 0.000000 0.000000 13.795779 -34.553101 3.594902 -15.088228 -16.222700 -17.100237 34.588392 -4.374565 2.372958 -16.856934 -9.432457 12.323592 0.000000 0.000000 0.000000 0.379025 -9.900330 -1.349561 -9.968088 -41.980224 -4.491617 12.826170 9.947530 -3.357139 6.692559 6.467932 -2.404045 0.000000 0.000000 0.000000 8.018578 5.657328 -2.696807 0.858116 2.040955 -0.337714 0.000000 0.000000 0.000000 8.734810 7.433413 -3.101561 3.985007 4.738758 -9.628256 -3.453311 -7.950064 -54.843332 2.230107 -46.115805 -2.340074 0.000000 0.000000 0.000000 9.330397 6.649970 -1.202651 3.198395 15.424073 8.462871 -7.504858 -9.900308 50.875241 -4.911255 29.733924 10.160176 0.000000 0.000000 0.000000 
-2.787750 87.121590 2.000677 0.000000 0.000000 0.000000 0.111855 -43.210355 0.274193 -42.276426 -1.458456 14.717700 43.666171 -7.596027 -1.313731 -6.940202 -7.253602 -12.343068 0.000000 0.000000 0.000000 13.855949 -34.309867 3.726980 -14.955471 -16.189645 -16.890180 34.633045 -4.524684 2.434623 -16.862221 -9.593327 12.310780 0.000000 0.000000 0.000000 0.498989 -9.782705 -1.271007 -9.962120 -41.770660 -4.447101 12.668380 9.845000 -3.292311 6.700910 6.411335 -2.437384 0.000000 0.000000 0.000000 8.100557 5.643977 -2.728217 0.806182 2.001690 -0.326781 0.000000 0.000000 0.000000 8.841778 7.437250 -3.156794 3.919126 4.424003 -9.602449 -3.573082 -7.604784 -54.989290 2.101055 -46.520377 -2.217869 0.000000 0.000000 0.000000 9.507534 6.718375 -1.316231 3.228562 14.925077 8.650276 -6.944020 -10.066262 51.161044 -4.753687 29.687704 10.190922 0.000000 0.000000 0.000000 
-2.666203 87.078484 1.984668 0.000000 0.000000 0.000000 0.017041 -43.382182 0.301695 -42.444787 -1.539149 14.783717 43.921849 -7.668602 -1.372849 -6.696744 -7.316326 -12.513938 0.000000 0.000000 0.000000 13.925426 -33.980550 3.890606 -14.789111 -16.140401 -16.619505 34.665338 -4.743057 2.505369 -16.884508 -9.818748 12.264325 0.000000 0.000000 0.000000 0.719417 -9.687214 -1.127350 -10.028207 -41.410146 -4.419478 12.495173 9.698019 -3.195852 6.732438 6.316926 -2.476032 0.000000 0.000000 0.000000 8.199921 5.622077 -2.771044 0.729325 1.942148 -0.316256 0.000000 0.000000 0.000000 8.967974 7.425043 -3.223559 3.827029 4.006136 -9.551339 -3.657333 -7.105057 -55.109108 1.905413 -47.084394 -2.062912 0.000000 0.000000 0.000000 9.734347 6.796166 -1.457600 3.243882 14.234949 8.907736 -6.185796 -10.237257 51.503533 -4.508103 29.664089 10.203491 0.000000 0.000000 0.000000 
-2.541462 87.049706 1.968899 0.000000 0.000000 0.000000 -0.107770 -43.591558 0.310802 -42.652353 -1.629620 14.843785 44.239996 -7.739399 -1.436482 -6.410910 -7.374995 -12.695895 0.000000 0.000000 0.000000 13.994190 -33.585515 4.061569 -14.608994 -16.074668 -16.321454 34.658391 -5.022413 2.567170 -16.934409 -10.094286 12.163163 0.000000 0.000000 0.000000 1.069096 -9.652504 -0.904449 -10.204335 -40.877852 -4.431476 12.354695 9.515814 -3.073309 6.794472 6.181583 -2.510931 0.000000 0.000000 0.000000 8.294626 5.591584 -2.822155 0.628558 1.864696 -0.311082 0.000000 0.000000 0.000000 9.084919 7.384077 -3.286737 3.715680 3.534018 -9.466534 -3.644879 -6.475612 -55.130094 1.649611 -47.755487 -1.895169 0.000000 0.000000 0.000000 9.977393 6.864463 -1.602418 3.226868 13.415764 9.214813 -5.297160 -10.356830 51.835798 -4.178586 29.703977 10.173447 0.000000 0.000000 0.000000 
-2.425988 87.047760 1.961406 0.000000 0.000000 0.000000 -0.260369 -43.812470 0.283925 -42.884063 -1.715211 14.879898 44.610701 -7.791657 -1.495467 -6.099088 -7.414472 -12.860923 0.000000 0.000000 0.000000 14.062460 -33.128982 4.224743 -14.421868 -15.990928 -16.018839 34.593993 -5.355450 2.606014 -17.018253 -10.407464 11.992526 0.000000 0.000000 0.000000 1.560359 -9.673775 -0.602812 -10.487880 -40.177106 -4.489564 12.279229 9.310024 -2.935503 6.882441 6.009074 -2.535267 0.000000 0.000000 0.000000 8.363197 5.553617 -2.878882 0.505376 1.775345 -0.315324 0.000000 0.000000 0.000000 9.170089 7.306660 -3.332136 3.593054 3.053126 -9.345242 -3.511514 -5.757080 -55.004401 1.351101 -48.468535 -1.726165 0.000000 0.000000 0.000000 10.208449 6.909595 -1.730173 3.173752 12.538504 9.552675 -4.330317 -10.389934 52.110194 -3.782163 29.844754 10.084906 0.000000 0.000000 0.000000 
